<svg width="30" height="30" viewBox="0 0 30 30" fill="none" xmlns="http://www.w3.org/2000/svg">
<path fill-rule="evenodd" clip-rule="evenodd" d="M3.125 23.75C2.08946 23.75 1.25 22.9105 1.25 21.875V8.125C1.25 7.08946 2.08946 6.25 3.125 6.25H10C16.25 6.25 16.25 14.375 12.5 14.375C16.25 14.375 17.5 23.75 10 23.75H3.125ZM5.625 13.75C5.27982 13.75 5 13.4701 5 13.125V9.375C5 9.02982 5.27982 8.75 5.625 8.75H8.75C8.75 8.75 11.25 8.75 11.25 11.25C11.25 13.75 8.75 13.75 8.75 13.75H5.625ZM5.625 16.25C5.27982 16.25 5 16.5299 5 16.875V20.625C5 20.9701 5.27982 21.25 5.625 21.25H10C10 21.25 11.875 21.25 11.875 18.75C11.875 16.25 10 16.25 10 16.25H5.625Z" fill="#00FEDF"/>
<path fill-rule="evenodd" clip-rule="evenodd" d="M26.8738 17.5043C27.91 17.5043 28.7766 16.6499 28.5653 15.6356C27.0082 8.16108 16.1411 8.8511 16.2501 17.5043C16.3332 24.0953 25.5431 26.2089 28.2548 20.2373C28.6857 19.2885 27.7185 18.7496 26.9216 18.7496C26.2133 18.7496 25.6642 19.4029 25.2117 19.9478C23.9091 21.5165 19.9536 21.4026 19.4312 18.1428C19.3757 17.7969 19.6631 17.5043 20.0133 17.5043H26.8738ZM19.7731 14.9996C19.5888 14.9996 19.4698 14.8066 19.5682 14.6509C20.8927 12.553 24.0768 12.5756 25.4248 14.6486C25.526 14.8043 25.4072 14.9996 25.2216 14.9996H19.7731Z" fill="#00FEDF"/>
<path d="M20 7.5C19.3096 7.5 18.75 8.05965 18.75 8.75C18.75 9.44035 19.3096 10 20 10H25C25.6904 10 26.25 9.44035 26.25 8.75C26.25 8.05965 25.6904 7.5 25 7.5H20Z" fill="#00FEDF"/>
</svg>
