<svg width="50" height="50" viewBox="0 0 50 50" fill="none" xmlns="http://www.w3.org/2000/svg">
<path fill-rule="evenodd" clip-rule="evenodd" d="M5.20825 39.5833C3.48236 39.5833 2.08325 38.1841 2.08325 36.4583V13.5416C2.08325 11.8157 3.48236 10.4166 5.20825 10.4166H16.6666C27.0833 10.4166 27.0833 23.9583 20.8333 23.9583C27.0833 23.9583 29.1666 39.5833 16.6666 39.5833H5.20825ZM9.37492 22.9166C8.79963 22.9166 8.33325 22.4502 8.33325 21.875V15.625C8.33325 15.0497 8.79963 14.5833 9.37492 14.5833H14.5833C14.5833 14.5833 18.7499 14.5833 18.7499 18.75C18.7499 22.9166 14.5833 22.9166 14.5833 22.9166H9.37492ZM9.37492 27.0833C8.79963 27.0833 8.33325 27.5497 8.33325 28.125V34.375C8.33325 34.9502 8.79963 35.4166 9.37492 35.4166H16.6666C16.6666 35.4166 19.7916 35.4166 19.7916 31.25C19.7916 27.0833 16.6666 27.0833 16.6666 27.0833H9.37492Z" fill="#00FEDF"/>
<path fill-rule="evenodd" clip-rule="evenodd" d="M44.7896 29.1738C46.5165 29.1738 47.9609 27.7498 47.6088 26.0594C45.0136 13.6018 26.9017 14.7519 27.0834 29.1738C27.2219 40.1588 42.5717 43.6815 47.0913 33.7288C47.8094 32.1475 46.1973 31.2494 44.8692 31.2494C43.6888 31.2494 42.7736 32.3382 42.0194 33.2463C39.8484 35.8609 33.2559 35.6711 32.3853 30.238C32.2928 29.6615 32.7717 29.1738 33.3555 29.1738H44.7896ZM32.9551 24.9994C32.648 24.9994 32.4496 24.6778 32.6136 24.4182C34.8211 20.9217 40.128 20.9594 42.3746 24.4144C42.5432 24.6738 42.3453 24.9994 42.0359 24.9994H32.9551Z" fill="#00FEDF"/>
<path d="M33.3333 12.5C32.1827 12.5 31.25 13.4327 31.25 14.5833C31.25 15.7339 32.1827 16.6667 33.3333 16.6667H41.6667C42.8173 16.6667 43.75 15.7339 43.75 14.5833C43.75 13.4327 42.8173 12.5 41.6667 12.5H33.3333Z" fill="#00FEDF"/>
</svg>
